{
	"patcher" : 	{
		"fileversion" : 1,
		"appversion" : 		{
			"major" : 8,
			"minor" : 5,
			"revision" : 6,
			"architecture" : "x64",
			"modernui" : 1
		}
,
		"classnamespace" : "box",
		"rect" : [ 34.0, 84.0, 1639.0, 802.0 ],
		"bglocked" : 0,
		"openinpresentation" : 0,
		"default_fontsize" : 12.0,
		"default_fontface" : 0,
		"default_fontname" : "Arial",
		"gridonopen" : 1,
		"gridsize" : [ 15.0, 15.0 ],
		"gridsnaponopen" : 1,
		"objectsnaponopen" : 1,
		"statusbarvisible" : 2,
		"toolbarvisible" : 1,
		"lefttoolbarpinned" : 0,
		"toptoolbarpinned" : 0,
		"righttoolbarpinned" : 0,
		"bottomtoolbarpinned" : 0,
		"toolbars_unpinned_last_save" : 0,
		"tallnewobj" : 0,
		"boxanimatetime" : 200,
		"enablehscroll" : 1,
		"enablevscroll" : 1,
		"devicewidth" : 0.0,
		"description" : "",
		"digest" : "",
		"tags" : "",
		"style" : "",
		"subpatcher_template" : "",
		"assistshowspatchername" : 0,
		"boxes" : [ 			{
				"box" : 				{
					"id" : "obj-65",
					"maxclass" : "newobj",
					"numinlets" : 0,
					"numoutlets" : 1,
					"outlettype" : [ "" ],
					"patching_rect" : [ 820.5, 211.0, 38.0, 22.0 ],
					"text" : "r play"
				}

			}
, 			{
				"box" : 				{
					"id" : "obj-66",
					"maxclass" : "message",
					"numinlets" : 2,
					"numoutlets" : 1,
					"outlettype" : [ "" ],
					"patching_rect" : [ 868.0, 211.0, 55.0, 22.0 ],
					"text" : "/mute $1"
				}

			}
, 			{
				"box" : 				{
					"id" : "obj-63",
					"maxclass" : "newobj",
					"numinlets" : 0,
					"numoutlets" : 1,
					"outlettype" : [ "" ],
					"patching_rect" : [ 590.0, 211.0, 38.0, 22.0 ],
					"text" : "r play"
				}

			}
, 			{
				"box" : 				{
					"id" : "obj-64",
					"maxclass" : "message",
					"numinlets" : 2,
					"numoutlets" : 1,
					"outlettype" : [ "" ],
					"patching_rect" : [ 637.5, 211.0, 55.0, 22.0 ],
					"text" : "/mute $1"
				}

			}
, 			{
				"box" : 				{
					"id" : "obj-61",
					"maxclass" : "newobj",
					"numinlets" : 0,
					"numoutlets" : 1,
					"outlettype" : [ "" ],
					"patching_rect" : [ 375.0, 211.0, 38.0, 22.0 ],
					"text" : "r play"
				}

			}
, 			{
				"box" : 				{
					"id" : "obj-62",
					"maxclass" : "message",
					"numinlets" : 2,
					"numoutlets" : 1,
					"outlettype" : [ "" ],
					"patching_rect" : [ 419.5, 211.0, 55.0, 22.0 ],
					"text" : "/mute $1"
				}

			}
, 			{
				"box" : 				{
					"id" : "obj-59",
					"maxclass" : "newobj",
					"numinlets" : 0,
					"numoutlets" : 1,
					"outlettype" : [ "" ],
					"patching_rect" : [ 149.5, 211.0, 38.0, 22.0 ],
					"text" : "r play"
				}

			}
, 			{
				"box" : 				{
					"id" : "obj-60",
					"maxclass" : "message",
					"numinlets" : 2,
					"numoutlets" : 1,
					"outlettype" : [ "" ],
					"patching_rect" : [ 194.0, 211.0, 55.0, 22.0 ],
					"text" : "/mute $1"
				}

			}
, 			{
				"box" : 				{
					"id" : "obj-57",
					"maxclass" : "newobj",
					"numinlets" : 0,
					"numoutlets" : 1,
					"outlettype" : [ "" ],
					"patching_rect" : [ 824.5, 30.0, 38.0, 22.0 ],
					"text" : "r play"
				}

			}
, 			{
				"box" : 				{
					"id" : "obj-58",
					"maxclass" : "message",
					"numinlets" : 2,
					"numoutlets" : 1,
					"outlettype" : [ "" ],
					"patching_rect" : [ 870.0, 30.0, 55.0, 22.0 ],
					"text" : "/mute $1"
				}

			}
, 			{
				"box" : 				{
					"id" : "obj-55",
					"maxclass" : "newobj",
					"numinlets" : 0,
					"numoutlets" : 1,
					"outlettype" : [ "" ],
					"patching_rect" : [ 599.0, 30.0, 38.0, 22.0 ],
					"text" : "r play"
				}

			}
, 			{
				"box" : 				{
					"id" : "obj-56",
					"maxclass" : "message",
					"numinlets" : 2,
					"numoutlets" : 1,
					"outlettype" : [ "" ],
					"patching_rect" : [ 644.5, 30.0, 55.0, 22.0 ],
					"text" : "/mute $1"
				}

			}
, 			{
				"box" : 				{
					"id" : "obj-53",
					"maxclass" : "newobj",
					"numinlets" : 0,
					"numoutlets" : 1,
					"outlettype" : [ "" ],
					"patching_rect" : [ 375.0, 30.0, 38.0, 22.0 ],
					"text" : "r play"
				}

			}
, 			{
				"box" : 				{
					"id" : "obj-54",
					"maxclass" : "message",
					"numinlets" : 2,
					"numoutlets" : 1,
					"outlettype" : [ "" ],
					"patching_rect" : [ 419.5, 30.0, 55.0, 22.0 ],
					"text" : "/mute $1"
				}

			}
, 			{
				"box" : 				{
					"id" : "obj-52",
					"maxclass" : "newobj",
					"numinlets" : 0,
					"numoutlets" : 1,
					"outlettype" : [ "" ],
					"patching_rect" : [ 149.5, 30.0, 38.0, 22.0 ],
					"text" : "r play"
				}

			}
, 			{
				"box" : 				{
					"id" : "obj-51",
					"maxclass" : "newobj",
					"numinlets" : 1,
					"numoutlets" : 0,
					"patching_rect" : [ 1323.0, 135.0, 40.0, 22.0 ],
					"text" : "s play"
				}

			}
, 			{
				"box" : 				{
					"id" : "obj-49",
					"maxclass" : "message",
					"numinlets" : 2,
					"numoutlets" : 1,
					"outlettype" : [ "" ],
					"patching_rect" : [ 1359.0, 106.0, 35.0, 22.0 ],
					"text" : "/stop"
				}

			}
, 			{
				"box" : 				{
					"id" : "obj-47",
					"maxclass" : "message",
					"numinlets" : 2,
					"numoutlets" : 1,
					"outlettype" : [ "" ],
					"patching_rect" : [ 1323.0, 106.0, 34.0, 22.0 ],
					"text" : "/play"
				}

			}
, 			{
				"box" : 				{
					"id" : "obj-45",
					"maxclass" : "newobj",
					"numinlets" : 3,
					"numoutlets" : 3,
					"outlettype" : [ "bang", "bang", "" ],
					"patching_rect" : [ 1323.0, 76.0, 91.0, 22.0 ],
					"text" : "sel 1 0"
				}

			}
, 			{
				"box" : 				{
					"comment" : "",
					"id" : "obj-44",
					"index" : 0,
					"maxclass" : "inlet",
					"numinlets" : 0,
					"numoutlets" : 1,
					"outlettype" : [ "" ],
					"patching_rect" : [ 1323.0, 30.0, 30.0, 30.0 ]
				}

			}
, 			{
				"box" : 				{
					"id" : "obj-50",
					"maxclass" : "message",
					"numinlets" : 2,
					"numoutlets" : 1,
					"outlettype" : [ "" ],
					"patching_rect" : [ 194.0, 30.0, 55.0, 22.0 ],
					"text" : "/mute $1"
				}

			}
, 			{
				"box" : 				{
					"id" : "obj-39",
					"maxclass" : "newobj",
					"numinlets" : 0,
					"numoutlets" : 1,
					"outlettype" : [ "" ],
					"patching_rect" : [ 780.0, 211.0, 29.0, 22.0 ],
					"text" : "r g8"
				}

			}
, 			{
				"box" : 				{
					"id" : "obj-38",
					"maxclass" : "newobj",
					"numinlets" : 0,
					"numoutlets" : 1,
					"outlettype" : [ "" ],
					"patching_rect" : [ 555.0, 211.0, 29.0, 22.0 ],
					"text" : "r g7"
				}

			}
, 			{
				"box" : 				{
					"id" : "obj-37",
					"maxclass" : "newobj",
					"numinlets" : 0,
					"numoutlets" : 1,
					"outlettype" : [ "" ],
					"patching_rect" : [ 330.0, 211.0, 29.0, 22.0 ],
					"text" : "r g6"
				}

			}
, 			{
				"box" : 				{
					"id" : "obj-36",
					"maxclass" : "newobj",
					"numinlets" : 0,
					"numoutlets" : 1,
					"outlettype" : [ "" ],
					"patching_rect" : [ 104.0, 211.0, 29.0, 22.0 ],
					"text" : "r g5"
				}

			}
, 			{
				"box" : 				{
					"id" : "obj-35",
					"maxclass" : "newobj",
					"numinlets" : 0,
					"numoutlets" : 1,
					"outlettype" : [ "" ],
					"patching_rect" : [ 780.0, 30.0, 29.0, 22.0 ],
					"text" : "r g4"
				}

			}
, 			{
				"box" : 				{
					"id" : "obj-34",
					"maxclass" : "newobj",
					"numinlets" : 0,
					"numoutlets" : 1,
					"outlettype" : [ "" ],
					"patching_rect" : [ 555.0, 30.0, 29.0, 22.0 ],
					"text" : "r g3"
				}

			}
, 			{
				"box" : 				{
					"id" : "obj-33",
					"maxclass" : "newobj",
					"numinlets" : 0,
					"numoutlets" : 1,
					"outlettype" : [ "" ],
					"patching_rect" : [ 330.0, 30.0, 29.0, 22.0 ],
					"text" : "r g2"
				}

			}
, 			{
				"box" : 				{
					"id" : "obj-32",
					"maxclass" : "newobj",
					"numinlets" : 0,
					"numoutlets" : 1,
					"outlettype" : [ "" ],
					"patching_rect" : [ 104.0, 30.0, 29.0, 22.0 ],
					"text" : "r g1"
				}

			}
, 			{
				"box" : 				{
					"id" : "obj-31",
					"maxclass" : "newobj",
					"numinlets" : 1,
					"numoutlets" : 0,
					"patching_rect" : [ 1512.0, 183.0, 31.0, 22.0 ],
					"text" : "s g8"
				}

			}
, 			{
				"box" : 				{
					"id" : "obj-30",
					"maxclass" : "newobj",
					"numinlets" : 1,
					"numoutlets" : 0,
					"patching_rect" : [ 1500.285714285714221, 159.0, 31.0, 22.0 ],
					"text" : "s g7"
				}

			}
, 			{
				"box" : 				{
					"id" : "obj-29",
					"maxclass" : "newobj",
					"numinlets" : 1,
					"numoutlets" : 0,
					"patching_rect" : [ 1488.571428571428669, 135.0, 31.0, 22.0 ],
					"text" : "s g6"
				}

			}
, 			{
				"box" : 				{
					"id" : "obj-28",
					"maxclass" : "newobj",
					"numinlets" : 1,
					"numoutlets" : 0,
					"patching_rect" : [ 1476.85714285714289, 106.0, 31.0, 22.0 ],
					"text" : "s g5"
				}

			}
, 			{
				"box" : 				{
					"id" : "obj-27",
					"maxclass" : "newobj",
					"numinlets" : 1,
					"numoutlets" : 0,
					"patching_rect" : [ 1465.14285714285711, 183.0, 31.0, 22.0 ],
					"text" : "s g4"
				}

			}
, 			{
				"box" : 				{
					"id" : "obj-10",
					"maxclass" : "newobj",
					"numinlets" : 1,
					"numoutlets" : 0,
					"patching_rect" : [ 1453.428571428571331, 159.0, 31.0, 22.0 ],
					"text" : "s g3"
				}

			}
, 			{
				"box" : 				{
					"id" : "obj-8",
					"maxclass" : "newobj",
					"numinlets" : 1,
					"numoutlets" : 0,
					"patching_rect" : [ 1441.714285714285779, 135.0, 31.0, 22.0 ],
					"text" : "s g2"
				}

			}
, 			{
				"box" : 				{
					"id" : "obj-6",
					"maxclass" : "newobj",
					"numinlets" : 1,
					"numoutlets" : 0,
					"patching_rect" : [ 1430.0, 106.0, 31.0, 22.0 ],
					"text" : "s g1"
				}

			}
, 			{
				"box" : 				{
					"id" : "obj-3",
					"maxclass" : "newobj",
					"numinlets" : 1,
					"numoutlets" : 8,
					"outlettype" : [ "float", "float", "float", "float", "float", "float", "float", "float" ],
					"patching_rect" : [ 1430.0, 76.0, 101.0, 22.0 ],
					"text" : "unpack f f f f f f f f"
				}

			}
, 			{
				"box" : 				{
					"comment" : "",
					"id" : "obj-1",
					"index" : 0,
					"maxclass" : "inlet",
					"numinlets" : 0,
					"numoutlets" : 1,
					"outlettype" : [ "" ],
					"patching_rect" : [ 1430.0, 30.0, 30.0, 30.0 ]
				}

			}
, 			{
				"box" : 				{
					"id" : "obj-19",
					"maxclass" : "newobj",
					"numinlets" : 0,
					"numoutlets" : 1,
					"outlettype" : [ "" ],
					"patching_rect" : [ 718.0, 211.0, 46.0, 22.0 ],
					"text" : "r mode"
				}

			}
, 			{
				"box" : 				{
					"id" : "obj-20",
					"maxclass" : "newobj",
					"numinlets" : 0,
					"numoutlets" : 1,
					"outlettype" : [ "" ],
					"patching_rect" : [ 494.0, 211.0, 46.0, 22.0 ],
					"text" : "r mode"
				}

			}
, 			{
				"box" : 				{
					"id" : "obj-21",
					"maxclass" : "newobj",
					"numinlets" : 0,
					"numoutlets" : 1,
					"outlettype" : [ "" ],
					"patching_rect" : [ 270.0, 211.0, 46.0, 22.0 ],
					"text" : "r mode"
				}

			}
, 			{
				"box" : 				{
					"id" : "obj-22",
					"maxclass" : "newobj",
					"numinlets" : 0,
					"numoutlets" : 1,
					"outlettype" : [ "" ],
					"patching_rect" : [ 46.0, 211.0, 46.0, 22.0 ],
					"text" : "r mode"
				}

			}
, 			{
				"box" : 				{
					"bgmode" : 0,
					"border" : 0,
					"clickthrough" : 0,
					"enablehscroll" : 0,
					"enablevscroll" : 0,
					"id" : "obj-23",
					"lockeddragscroll" : 0,
					"lockedsize" : 0,
					"maxclass" : "bpatcher",
					"name" : "spat5.input~.maxpat",
					"numinlets" : 1,
					"numoutlets" : 1,
					"offset" : [ 0.0, 0.0 ],
					"outlettype" : [ "signal" ],
					"patching_rect" : [ 718.0, 254.0, 213.0, 122.0 ],
					"presentation" : 1,
					"presentation_rect" : [ 718.0, 254.0, 213.0, 122.0 ],
					"viewvisibility" : 1
				}

			}
, 			{
				"box" : 				{
					"bgmode" : 0,
					"border" : 0,
					"clickthrough" : 0,
					"enablehscroll" : 0,
					"enablevscroll" : 0,
					"id" : "obj-24",
					"lockeddragscroll" : 0,
					"lockedsize" : 0,
					"maxclass" : "bpatcher",
					"name" : "spat5.input~.maxpat",
					"numinlets" : 1,
					"numoutlets" : 1,
					"offset" : [ 0.0, 0.0 ],
					"outlettype" : [ "signal" ],
					"patching_rect" : [ 494.0, 254.0, 212.0, 122.0 ],
					"presentation" : 1,
					"presentation_rect" : [ 494.0, 254.0, 212.0, 122.0 ],
					"viewvisibility" : 1
				}

			}
, 			{
				"box" : 				{
					"bgmode" : 0,
					"border" : 0,
					"clickthrough" : 0,
					"enablehscroll" : 0,
					"enablevscroll" : 0,
					"id" : "obj-25",
					"lockeddragscroll" : 0,
					"lockedsize" : 0,
					"maxclass" : "bpatcher",
					"name" : "spat5.input~.maxpat",
					"numinlets" : 1,
					"numoutlets" : 1,
					"offset" : [ 0.0, 0.0 ],
					"outlettype" : [ "signal" ],
					"patching_rect" : [ 270.0, 254.0, 212.0, 122.0 ],
					"presentation" : 1,
					"presentation_rect" : [ 270.0, 254.0, 212.0, 122.0 ],
					"viewvisibility" : 1
				}

			}
, 			{
				"box" : 				{
					"bgmode" : 0,
					"border" : 0,
					"clickthrough" : 0,
					"enablehscroll" : 0,
					"enablevscroll" : 0,
					"id" : "obj-26",
					"lockeddragscroll" : 0,
					"lockedsize" : 0,
					"maxclass" : "bpatcher",
					"name" : "spat5.input~.maxpat",
					"numinlets" : 1,
					"numoutlets" : 1,
					"offset" : [ 0.0, 0.0 ],
					"outlettype" : [ "signal" ],
					"patching_rect" : [ 46.0, 254.0, 213.0, 122.0 ],
					"presentation" : 1,
					"presentation_rect" : [ 46.0, 254.0, 213.0, 122.0 ],
					"viewvisibility" : 1
				}

			}
, 			{
				"box" : 				{
					"id" : "obj-18",
					"maxclass" : "newobj",
					"numinlets" : 0,
					"numoutlets" : 1,
					"outlettype" : [ "" ],
					"patching_rect" : [ 718.0, 30.0, 46.0, 22.0 ],
					"text" : "r mode"
				}

			}
, 			{
				"box" : 				{
					"id" : "obj-17",
					"maxclass" : "newobj",
					"numinlets" : 0,
					"numoutlets" : 1,
					"outlettype" : [ "" ],
					"patching_rect" : [ 494.0, 30.0, 46.0, 22.0 ],
					"text" : "r mode"
				}

			}
, 			{
				"box" : 				{
					"id" : "obj-16",
					"maxclass" : "newobj",
					"numinlets" : 0,
					"numoutlets" : 1,
					"outlettype" : [ "" ],
					"patching_rect" : [ 270.0, 30.0, 46.0, 22.0 ],
					"text" : "r mode"
				}

			}
, 			{
				"box" : 				{
					"id" : "obj-15",
					"maxclass" : "newobj",
					"numinlets" : 0,
					"numoutlets" : 1,
					"outlettype" : [ "" ],
					"patching_rect" : [ 46.0, 30.0, 46.0, 22.0 ],
					"text" : "r mode"
				}

			}
, 			{
				"box" : 				{
					"id" : "obj-14",
					"maxclass" : "newobj",
					"numinlets" : 1,
					"numoutlets" : 0,
					"patching_rect" : [ 1548.0, 106.0, 48.0, 22.0 ],
					"text" : "s mode"
				}

			}
, 			{
				"box" : 				{
					"comment" : "",
					"id" : "obj-13",
					"index" : 0,
					"maxclass" : "outlet",
					"numinlets" : 1,
					"numoutlets" : 0,
					"patching_rect" : [ 46.0, 435.0, 30.0, 30.0 ]
				}

			}
, 			{
				"box" : 				{
					"fontsize" : 12.0,
					"id" : "obj-12",
					"maxclass" : "newobj",
					"numinlets" : 8,
					"numoutlets" : 1,
					"outlettype" : [ "multichannelsignal" ],
					"patching_rect" : [ 46.0, 405.0, 803.0, 22.0 ],
					"text" : "mc.pack~ 8"
				}

			}
, 			{
				"box" : 				{
					"bgmode" : 0,
					"border" : 0,
					"clickthrough" : 0,
					"enablehscroll" : 0,
					"enablevscroll" : 0,
					"id" : "obj-11",
					"lockeddragscroll" : 0,
					"lockedsize" : 0,
					"maxclass" : "bpatcher",
					"name" : "spat5.input~.maxpat",
					"numinlets" : 1,
					"numoutlets" : 1,
					"offset" : [ 0.0, 0.0 ],
					"outlettype" : [ "signal" ],
					"patching_rect" : [ 718.0, 76.0, 213.0, 122.0 ],
					"presentation" : 1,
					"presentation_rect" : [ 718.0, 76.0, 213.0, 122.0 ],
					"viewvisibility" : 1
				}

			}
, 			{
				"box" : 				{
					"bgmode" : 0,
					"border" : 0,
					"clickthrough" : 0,
					"enablehscroll" : 0,
					"enablevscroll" : 0,
					"id" : "obj-9",
					"lockeddragscroll" : 0,
					"lockedsize" : 0,
					"maxclass" : "bpatcher",
					"name" : "spat5.input~.maxpat",
					"numinlets" : 1,
					"numoutlets" : 1,
					"offset" : [ 0.0, 0.0 ],
					"outlettype" : [ "signal" ],
					"patching_rect" : [ 494.0, 76.0, 212.0, 122.0 ],
					"presentation" : 1,
					"presentation_rect" : [ 494.0, 76.0, 212.0, 122.0 ],
					"viewvisibility" : 1
				}

			}
, 			{
				"box" : 				{
					"bgmode" : 0,
					"border" : 0,
					"clickthrough" : 0,
					"enablehscroll" : 0,
					"enablevscroll" : 0,
					"id" : "obj-7",
					"lockeddragscroll" : 0,
					"lockedsize" : 0,
					"maxclass" : "bpatcher",
					"name" : "spat5.input~.maxpat",
					"numinlets" : 1,
					"numoutlets" : 1,
					"offset" : [ 0.0, 0.0 ],
					"outlettype" : [ "signal" ],
					"patching_rect" : [ 270.0, 76.0, 212.0, 122.0 ],
					"presentation" : 1,
					"presentation_rect" : [ 270.0, 76.0, 212.0, 122.0 ],
					"viewvisibility" : 1
				}

			}
, 			{
				"box" : 				{
					"id" : "obj-5",
					"maxclass" : "newobj",
					"numinlets" : 1,
					"numoutlets" : 1,
					"outlettype" : [ "bang" ],
					"patching_rect" : [ 1548.0, 30.0, 58.0, 22.0 ],
					"text" : "loadbang"
				}

			}
, 			{
				"box" : 				{
					"id" : "obj-4",
					"maxclass" : "message",
					"numinlets" : 2,
					"numoutlets" : 1,
					"outlettype" : [ "" ],
					"patching_rect" : [ 1548.0, 76.0, 52.0, 22.0 ],
					"text" : "/mode 3"
				}

			}
, 			{
				"box" : 				{
					"bgmode" : 0,
					"border" : 0,
					"clickthrough" : 0,
					"enablehscroll" : 0,
					"enablevscroll" : 0,
					"id" : "obj-2",
					"lockeddragscroll" : 0,
					"lockedsize" : 0,
					"maxclass" : "bpatcher",
					"name" : "spat5.input~.maxpat",
					"numinlets" : 1,
					"numoutlets" : 1,
					"offset" : [ 0.0, 0.0 ],
					"outlettype" : [ "signal" ],
					"patching_rect" : [ 46.0, 76.0, 213.0, 122.0 ],
					"presentation" : 1,
					"presentation_rect" : [ 46.0, 76.0, 213.0, 122.0 ],
					"viewvisibility" : 1
				}

			}
 ],
		"lines" : [ 			{
				"patchline" : 				{
					"destination" : [ "obj-3", 0 ],
					"source" : [ "obj-1", 0 ]
				}

			}
, 			{
				"patchline" : 				{
					"destination" : [ "obj-12", 6 ],
					"source" : [ "obj-11", 0 ]
				}

			}
, 			{
				"patchline" : 				{
					"destination" : [ "obj-13", 0 ],
					"source" : [ "obj-12", 0 ]
				}

			}
, 			{
				"patchline" : 				{
					"destination" : [ "obj-2", 0 ],
					"source" : [ "obj-15", 0 ]
				}

			}
, 			{
				"patchline" : 				{
					"destination" : [ "obj-7", 0 ],
					"source" : [ "obj-16", 0 ]
				}

			}
, 			{
				"patchline" : 				{
					"destination" : [ "obj-9", 0 ],
					"source" : [ "obj-17", 0 ]
				}

			}
, 			{
				"patchline" : 				{
					"destination" : [ "obj-11", 0 ],
					"source" : [ "obj-18", 0 ]
				}

			}
, 			{
				"patchline" : 				{
					"destination" : [ "obj-23", 0 ],
					"source" : [ "obj-19", 0 ]
				}

			}
, 			{
				"patchline" : 				{
					"destination" : [ "obj-12", 0 ],
					"source" : [ "obj-2", 0 ]
				}

			}
, 			{
				"patchline" : 				{
					"destination" : [ "obj-24", 0 ],
					"source" : [ "obj-20", 0 ]
				}

			}
, 			{
				"patchline" : 				{
					"destination" : [ "obj-25", 0 ],
					"source" : [ "obj-21", 0 ]
				}

			}
, 			{
				"patchline" : 				{
					"destination" : [ "obj-26", 0 ],
					"source" : [ "obj-22", 0 ]
				}

			}
, 			{
				"patchline" : 				{
					"destination" : [ "obj-12", 7 ],
					"source" : [ "obj-23", 0 ]
				}

			}
, 			{
				"patchline" : 				{
					"destination" : [ "obj-12", 5 ],
					"source" : [ "obj-24", 0 ]
				}

			}
, 			{
				"patchline" : 				{
					"destination" : [ "obj-12", 3 ],
					"source" : [ "obj-25", 0 ]
				}

			}
, 			{
				"patchline" : 				{
					"destination" : [ "obj-12", 1 ],
					"source" : [ "obj-26", 0 ]
				}

			}
, 			{
				"patchline" : 				{
					"destination" : [ "obj-10", 0 ],
					"source" : [ "obj-3", 2 ]
				}

			}
, 			{
				"patchline" : 				{
					"destination" : [ "obj-27", 0 ],
					"source" : [ "obj-3", 3 ]
				}

			}
, 			{
				"patchline" : 				{
					"destination" : [ "obj-28", 0 ],
					"source" : [ "obj-3", 4 ]
				}

			}
, 			{
				"patchline" : 				{
					"destination" : [ "obj-29", 0 ],
					"source" : [ "obj-3", 5 ]
				}

			}
, 			{
				"patchline" : 				{
					"destination" : [ "obj-30", 0 ],
					"source" : [ "obj-3", 6 ]
				}

			}
, 			{
				"patchline" : 				{
					"destination" : [ "obj-31", 0 ],
					"source" : [ "obj-3", 7 ]
				}

			}
, 			{
				"patchline" : 				{
					"destination" : [ "obj-6", 0 ],
					"source" : [ "obj-3", 0 ]
				}

			}
, 			{
				"patchline" : 				{
					"destination" : [ "obj-8", 0 ],
					"source" : [ "obj-3", 1 ]
				}

			}
, 			{
				"patchline" : 				{
					"destination" : [ "obj-2", 0 ],
					"source" : [ "obj-32", 0 ]
				}

			}
, 			{
				"patchline" : 				{
					"destination" : [ "obj-7", 0 ],
					"source" : [ "obj-33", 0 ]
				}

			}
, 			{
				"patchline" : 				{
					"destination" : [ "obj-9", 0 ],
					"source" : [ "obj-34", 0 ]
				}

			}
, 			{
				"patchline" : 				{
					"destination" : [ "obj-11", 0 ],
					"source" : [ "obj-35", 0 ]
				}

			}
, 			{
				"patchline" : 				{
					"destination" : [ "obj-26", 0 ],
					"source" : [ "obj-36", 0 ]
				}

			}
, 			{
				"patchline" : 				{
					"destination" : [ "obj-25", 0 ],
					"source" : [ "obj-37", 0 ]
				}

			}
, 			{
				"patchline" : 				{
					"destination" : [ "obj-24", 0 ],
					"source" : [ "obj-38", 0 ]
				}

			}
, 			{
				"patchline" : 				{
					"destination" : [ "obj-23", 0 ],
					"source" : [ "obj-39", 0 ]
				}

			}
, 			{
				"patchline" : 				{
					"destination" : [ "obj-14", 0 ],
					"source" : [ "obj-4", 0 ]
				}

			}
, 			{
				"patchline" : 				{
					"destination" : [ "obj-45", 0 ],
					"source" : [ "obj-44", 0 ]
				}

			}
, 			{
				"patchline" : 				{
					"destination" : [ "obj-47", 0 ],
					"source" : [ "obj-45", 0 ]
				}

			}
, 			{
				"patchline" : 				{
					"destination" : [ "obj-49", 0 ],
					"source" : [ "obj-45", 1 ]
				}

			}
, 			{
				"patchline" : 				{
					"destination" : [ "obj-51", 0 ],
					"source" : [ "obj-47", 0 ]
				}

			}
, 			{
				"patchline" : 				{
					"destination" : [ "obj-51", 0 ],
					"source" : [ "obj-49", 0 ]
				}

			}
, 			{
				"patchline" : 				{
					"destination" : [ "obj-4", 0 ],
					"source" : [ "obj-5", 0 ]
				}

			}
, 			{
				"patchline" : 				{
					"destination" : [ "obj-2", 0 ],
					"source" : [ "obj-50", 0 ]
				}

			}
, 			{
				"patchline" : 				{
					"destination" : [ "obj-2", 0 ],
					"source" : [ "obj-52", 0 ]
				}

			}
, 			{
				"patchline" : 				{
					"destination" : [ "obj-7", 0 ],
					"source" : [ "obj-53", 0 ]
				}

			}
, 			{
				"patchline" : 				{
					"destination" : [ "obj-7", 0 ],
					"source" : [ "obj-54", 0 ]
				}

			}
, 			{
				"patchline" : 				{
					"destination" : [ "obj-9", 0 ],
					"source" : [ "obj-55", 0 ]
				}

			}
, 			{
				"patchline" : 				{
					"destination" : [ "obj-9", 0 ],
					"source" : [ "obj-56", 0 ]
				}

			}
, 			{
				"patchline" : 				{
					"destination" : [ "obj-11", 0 ],
					"source" : [ "obj-57", 0 ]
				}

			}
, 			{
				"patchline" : 				{
					"destination" : [ "obj-11", 0 ],
					"source" : [ "obj-58", 0 ]
				}

			}
, 			{
				"patchline" : 				{
					"destination" : [ "obj-26", 0 ],
					"source" : [ "obj-59", 0 ]
				}

			}
, 			{
				"patchline" : 				{
					"destination" : [ "obj-26", 0 ],
					"source" : [ "obj-60", 0 ]
				}

			}
, 			{
				"patchline" : 				{
					"destination" : [ "obj-25", 0 ],
					"source" : [ "obj-61", 0 ]
				}

			}
, 			{
				"patchline" : 				{
					"destination" : [ "obj-25", 0 ],
					"source" : [ "obj-62", 0 ]
				}

			}
, 			{
				"patchline" : 				{
					"destination" : [ "obj-24", 0 ],
					"source" : [ "obj-63", 0 ]
				}

			}
, 			{
				"patchline" : 				{
					"destination" : [ "obj-24", 0 ],
					"source" : [ "obj-64", 0 ]
				}

			}
, 			{
				"patchline" : 				{
					"destination" : [ "obj-23", 0 ],
					"source" : [ "obj-65", 0 ]
				}

			}
, 			{
				"patchline" : 				{
					"destination" : [ "obj-23", 0 ],
					"source" : [ "obj-66", 0 ]
				}

			}
, 			{
				"patchline" : 				{
					"destination" : [ "obj-12", 2 ],
					"source" : [ "obj-7", 0 ]
				}

			}
, 			{
				"patchline" : 				{
					"destination" : [ "obj-12", 4 ],
					"source" : [ "obj-9", 0 ]
				}

			}
 ],
		"parameters" : 		{
			"obj-11::obj-1" : [ "live.menu[3]", "live.menu", 0 ],
			"obj-11::obj-12::obj-4" : [ "live.numbox[6]", "live.numbox", 0 ],
			"obj-11::obj-182" : [ "spat_input_mute_button[3]", "spat_input_mute_button", 0 ],
			"obj-11::obj-2" : [ "live.gain~[3]", " ", 0 ],
			"obj-11::obj-23" : [ "live.toggle[11]", "live.toggle", 0 ],
			"obj-11::obj-26::obj-56" : [ "live.button[7]", "live.button[1]", 0 ],
			"obj-11::obj-26::obj-58" : [ "live.toggle[10]", "live.toggle[1]", 0 ],
			"obj-11::obj-26::obj-59" : [ "live.numbox[7]", "live.numbox[1]", 0 ],
			"obj-11::obj-43::obj-8" : [ "live.dial[3]", "freq", 0 ],
			"obj-11::obj-46::obj-36" : [ "select folder[4]", "select folder", 0 ],
			"obj-11::obj-46::obj-70" : [ "live.toggle[9]", "live.toggle", 0 ],
			"obj-11::obj-46::obj-8" : [ "live.drop[3]", "live.drop", 0 ],
			"obj-11::obj-5::obj-12" : [ "live.button[6]", "live.button", 0 ],
			"obj-23::obj-1" : [ "live.menu[7]", "live.menu", 0 ],
			"obj-23::obj-12::obj-4" : [ "live.numbox[14]", "live.numbox", 0 ],
			"obj-23::obj-182" : [ "spat_input_mute_button[7]", "spat_input_mute_button", 0 ],
			"obj-23::obj-2" : [ "live.gain~[7]", " ", 0 ],
			"obj-23::obj-23" : [ "live.toggle[23]", "live.toggle", 0 ],
			"obj-23::obj-26::obj-56" : [ "live.button[15]", "live.button[1]", 0 ],
			"obj-23::obj-26::obj-58" : [ "live.toggle[22]", "live.toggle[1]", 0 ],
			"obj-23::obj-26::obj-59" : [ "live.numbox[15]", "live.numbox[1]", 0 ],
			"obj-23::obj-43::obj-8" : [ "live.dial[7]", "freq", 0 ],
			"obj-23::obj-46::obj-36" : [ "select folder[8]", "select folder", 0 ],
			"obj-23::obj-46::obj-70" : [ "live.toggle[21]", "live.toggle", 0 ],
			"obj-23::obj-46::obj-8" : [ "live.drop[7]", "live.drop", 0 ],
			"obj-23::obj-5::obj-12" : [ "live.button[14]", "live.button", 0 ],
			"obj-24::obj-1" : [ "live.menu[6]", "live.menu", 0 ],
			"obj-24::obj-12::obj-4" : [ "live.numbox[12]", "live.numbox", 0 ],
			"obj-24::obj-182" : [ "spat_input_mute_button[6]", "spat_input_mute_button", 0 ],
			"obj-24::obj-2" : [ "live.gain~[6]", " ", 0 ],
			"obj-24::obj-23" : [ "live.toggle[20]", "live.toggle", 0 ],
			"obj-24::obj-26::obj-56" : [ "live.button[13]", "live.button[1]", 0 ],
			"obj-24::obj-26::obj-58" : [ "live.toggle[19]", "live.toggle[1]", 0 ],
			"obj-24::obj-26::obj-59" : [ "live.numbox[13]", "live.numbox[1]", 0 ],
			"obj-24::obj-43::obj-8" : [ "live.dial[6]", "freq", 0 ],
			"obj-24::obj-46::obj-36" : [ "select folder[7]", "select folder", 0 ],
			"obj-24::obj-46::obj-70" : [ "live.toggle[18]", "live.toggle", 0 ],
			"obj-24::obj-46::obj-8" : [ "live.drop[6]", "live.drop", 0 ],
			"obj-24::obj-5::obj-12" : [ "live.button[12]", "live.button", 0 ],
			"obj-25::obj-1" : [ "live.menu[5]", "live.menu", 0 ],
			"obj-25::obj-12::obj-4" : [ "live.numbox[10]", "live.numbox", 0 ],
			"obj-25::obj-182" : [ "spat_input_mute_button[5]", "spat_input_mute_button", 0 ],
			"obj-25::obj-2" : [ "live.gain~[5]", " ", 0 ],
			"obj-25::obj-23" : [ "live.toggle[17]", "live.toggle", 0 ],
			"obj-25::obj-26::obj-56" : [ "live.button[11]", "live.button[1]", 0 ],
			"obj-25::obj-26::obj-58" : [ "live.toggle[16]", "live.toggle[1]", 0 ],
			"obj-25::obj-26::obj-59" : [ "live.numbox[11]", "live.numbox[1]", 0 ],
			"obj-25::obj-43::obj-8" : [ "live.dial[5]", "freq", 0 ],
			"obj-25::obj-46::obj-36" : [ "select folder[6]", "select folder", 0 ],
			"obj-25::obj-46::obj-70" : [ "live.toggle[15]", "live.toggle", 0 ],
			"obj-25::obj-46::obj-8" : [ "live.drop[5]", "live.drop", 0 ],
			"obj-25::obj-5::obj-12" : [ "live.button[10]", "live.button", 0 ],
			"obj-26::obj-1" : [ "live.menu[4]", "live.menu", 0 ],
			"obj-26::obj-12::obj-4" : [ "live.numbox[8]", "live.numbox", 0 ],
			"obj-26::obj-182" : [ "spat_input_mute_button[4]", "spat_input_mute_button", 0 ],
			"obj-26::obj-2" : [ "live.gain~[4]", " ", 0 ],
			"obj-26::obj-23" : [ "live.toggle[14]", "live.toggle", 0 ],
			"obj-26::obj-26::obj-56" : [ "live.button[9]", "live.button[1]", 0 ],
			"obj-26::obj-26::obj-58" : [ "live.toggle[13]", "live.toggle[1]", 0 ],
			"obj-26::obj-26::obj-59" : [ "live.numbox[9]", "live.numbox[1]", 0 ],
			"obj-26::obj-43::obj-8" : [ "live.dial[4]", "freq", 0 ],
			"obj-26::obj-46::obj-36" : [ "select folder[5]", "select folder", 0 ],
			"obj-26::obj-46::obj-70" : [ "live.toggle[12]", "live.toggle", 0 ],
			"obj-26::obj-46::obj-8" : [ "live.drop[4]", "live.drop", 0 ],
			"obj-26::obj-5::obj-12" : [ "live.button[8]", "live.button", 0 ],
			"obj-2::obj-1" : [ "live.menu", "live.menu", 0 ],
			"obj-2::obj-12::obj-4" : [ "live.numbox", "live.numbox", 0 ],
			"obj-2::obj-182" : [ "spat_input_mute_button", "spat_input_mute_button", 0 ],
			"obj-2::obj-2" : [ "live.gain~", " ", 0 ],
			"obj-2::obj-23" : [ "live.toggle", "live.toggle", 0 ],
			"obj-2::obj-26::obj-56" : [ "live.button[1]", "live.button[1]", 0 ],
			"obj-2::obj-26::obj-58" : [ "live.toggle[1]", "live.toggle[1]", 0 ],
			"obj-2::obj-26::obj-59" : [ "live.numbox[1]", "live.numbox[1]", 0 ],
			"obj-2::obj-43::obj-8" : [ "live.dial", "freq", 0 ],
			"obj-2::obj-46::obj-36" : [ "select folder[1]", "select folder", 0 ],
			"obj-2::obj-46::obj-70" : [ "live.toggle[2]", "live.toggle", 0 ],
			"obj-2::obj-46::obj-8" : [ "live.drop", "live.drop", 0 ],
			"obj-2::obj-5::obj-12" : [ "live.button", "live.button", 0 ],
			"obj-7::obj-1" : [ "live.menu[1]", "live.menu", 0 ],
			"obj-7::obj-12::obj-4" : [ "live.numbox[2]", "live.numbox", 0 ],
			"obj-7::obj-182" : [ "spat_input_mute_button[1]", "spat_input_mute_button", 0 ],
			"obj-7::obj-2" : [ "live.gain~[1]", " ", 0 ],
			"obj-7::obj-23" : [ "live.toggle[5]", "live.toggle", 0 ],
			"obj-7::obj-26::obj-56" : [ "live.button[3]", "live.button[1]", 0 ],
			"obj-7::obj-26::obj-58" : [ "live.toggle[4]", "live.toggle[1]", 0 ],
			"obj-7::obj-26::obj-59" : [ "live.numbox[3]", "live.numbox[1]", 0 ],
			"obj-7::obj-43::obj-8" : [ "live.dial[1]", "freq", 0 ],
			"obj-7::obj-46::obj-36" : [ "select folder[2]", "select folder", 0 ],
			"obj-7::obj-46::obj-70" : [ "live.toggle[3]", "live.toggle", 0 ],
			"obj-7::obj-46::obj-8" : [ "live.drop[1]", "live.drop", 0 ],
			"obj-7::obj-5::obj-12" : [ "live.button[2]", "live.button", 0 ],
			"obj-9::obj-1" : [ "live.menu[2]", "live.menu", 0 ],
			"obj-9::obj-12::obj-4" : [ "live.numbox[4]", "live.numbox", 0 ],
			"obj-9::obj-182" : [ "spat_input_mute_button[2]", "spat_input_mute_button", 0 ],
			"obj-9::obj-2" : [ "live.gain~[2]", " ", 0 ],
			"obj-9::obj-23" : [ "live.toggle[8]", "live.toggle", 0 ],
			"obj-9::obj-26::obj-56" : [ "live.button[5]", "live.button[1]", 0 ],
			"obj-9::obj-26::obj-58" : [ "live.toggle[7]", "live.toggle[1]", 0 ],
			"obj-9::obj-26::obj-59" : [ "live.numbox[5]", "live.numbox[1]", 0 ],
			"obj-9::obj-43::obj-8" : [ "live.dial[2]", "freq", 0 ],
			"obj-9::obj-46::obj-36" : [ "select folder[3]", "select folder", 0 ],
			"obj-9::obj-46::obj-70" : [ "live.toggle[6]", "live.toggle", 0 ],
			"obj-9::obj-46::obj-8" : [ "live.drop[2]", "live.drop", 0 ],
			"obj-9::obj-5::obj-12" : [ "live.button[4]", "live.button", 0 ],
			"parameterbanks" : 			{
				"0" : 				{
					"index" : 0,
					"name" : "",
					"parameters" : [ "-", "-", "-", "-", "-", "-", "-", "-" ]
				}

			}
,
			"parameter_overrides" : 			{
				"obj-11::obj-1" : 				{
					"parameter_longname" : "live.menu[3]"
				}
,
				"obj-11::obj-12::obj-4" : 				{
					"parameter_longname" : "live.numbox[6]"
				}
,
				"obj-11::obj-182" : 				{
					"parameter_longname" : "spat_input_mute_button[3]"
				}
,
				"obj-11::obj-2" : 				{
					"parameter_longname" : "live.gain~[3]"
				}
,
				"obj-11::obj-23" : 				{
					"parameter_longname" : "live.toggle[11]"
				}
,
				"obj-11::obj-26::obj-56" : 				{
					"parameter_longname" : "live.button[7]"
				}
,
				"obj-11::obj-26::obj-58" : 				{
					"parameter_longname" : "live.toggle[10]"
				}
,
				"obj-11::obj-26::obj-59" : 				{
					"parameter_longname" : "live.numbox[7]"
				}
,
				"obj-11::obj-43::obj-8" : 				{
					"parameter_longname" : "live.dial[3]"
				}
,
				"obj-11::obj-46::obj-36" : 				{
					"parameter_longname" : "select folder[4]"
				}
,
				"obj-11::obj-46::obj-70" : 				{
					"parameter_longname" : "live.toggle[9]"
				}
,
				"obj-11::obj-46::obj-8" : 				{
					"parameter_longname" : "live.drop[3]"
				}
,
				"obj-11::obj-5::obj-12" : 				{
					"parameter_longname" : "live.button[6]"
				}
,
				"obj-23::obj-1" : 				{
					"parameter_longname" : "live.menu[7]"
				}
,
				"obj-23::obj-12::obj-4" : 				{
					"parameter_longname" : "live.numbox[14]"
				}
,
				"obj-23::obj-182" : 				{
					"parameter_longname" : "spat_input_mute_button[7]"
				}
,
				"obj-23::obj-2" : 				{
					"parameter_longname" : "live.gain~[7]"
				}
,
				"obj-23::obj-23" : 				{
					"parameter_longname" : "live.toggle[23]"
				}
,
				"obj-23::obj-26::obj-56" : 				{
					"parameter_longname" : "live.button[15]"
				}
,
				"obj-23::obj-26::obj-58" : 				{
					"parameter_longname" : "live.toggle[22]"
				}
,
				"obj-23::obj-26::obj-59" : 				{
					"parameter_longname" : "live.numbox[15]"
				}
,
				"obj-23::obj-43::obj-8" : 				{
					"parameter_longname" : "live.dial[7]"
				}
,
				"obj-23::obj-46::obj-36" : 				{
					"parameter_longname" : "select folder[8]"
				}
,
				"obj-23::obj-46::obj-70" : 				{
					"parameter_longname" : "live.toggle[21]"
				}
,
				"obj-23::obj-46::obj-8" : 				{
					"parameter_longname" : "live.drop[7]"
				}
,
				"obj-23::obj-5::obj-12" : 				{
					"parameter_longname" : "live.button[14]"
				}
,
				"obj-24::obj-1" : 				{
					"parameter_longname" : "live.menu[6]"
				}
,
				"obj-24::obj-12::obj-4" : 				{
					"parameter_longname" : "live.numbox[12]"
				}
,
				"obj-24::obj-182" : 				{
					"parameter_longname" : "spat_input_mute_button[6]"
				}
,
				"obj-24::obj-2" : 				{
					"parameter_longname" : "live.gain~[6]"
				}
,
				"obj-24::obj-23" : 				{
					"parameter_longname" : "live.toggle[20]"
				}
,
				"obj-24::obj-26::obj-56" : 				{
					"parameter_longname" : "live.button[13]"
				}
,
				"obj-24::obj-26::obj-58" : 				{
					"parameter_longname" : "live.toggle[19]"
				}
,
				"obj-24::obj-26::obj-59" : 				{
					"parameter_longname" : "live.numbox[13]"
				}
,
				"obj-24::obj-43::obj-8" : 				{
					"parameter_longname" : "live.dial[6]"
				}
,
				"obj-24::obj-46::obj-36" : 				{
					"parameter_longname" : "select folder[7]"
				}
,
				"obj-24::obj-46::obj-70" : 				{
					"parameter_longname" : "live.toggle[18]"
				}
,
				"obj-24::obj-46::obj-8" : 				{
					"parameter_longname" : "live.drop[6]"
				}
,
				"obj-24::obj-5::obj-12" : 				{
					"parameter_longname" : "live.button[12]"
				}
,
				"obj-25::obj-1" : 				{
					"parameter_longname" : "live.menu[5]"
				}
,
				"obj-25::obj-12::obj-4" : 				{
					"parameter_longname" : "live.numbox[10]"
				}
,
				"obj-25::obj-182" : 				{
					"parameter_longname" : "spat_input_mute_button[5]"
				}
,
				"obj-25::obj-2" : 				{
					"parameter_longname" : "live.gain~[5]"
				}
,
				"obj-25::obj-23" : 				{
					"parameter_longname" : "live.toggle[17]"
				}
,
				"obj-25::obj-26::obj-56" : 				{
					"parameter_longname" : "live.button[11]"
				}
,
				"obj-25::obj-26::obj-58" : 				{
					"parameter_longname" : "live.toggle[16]"
				}
,
				"obj-25::obj-26::obj-59" : 				{
					"parameter_longname" : "live.numbox[11]"
				}
,
				"obj-25::obj-43::obj-8" : 				{
					"parameter_longname" : "live.dial[5]"
				}
,
				"obj-25::obj-46::obj-36" : 				{
					"parameter_longname" : "select folder[6]"
				}
,
				"obj-25::obj-46::obj-70" : 				{
					"parameter_longname" : "live.toggle[15]"
				}
,
				"obj-25::obj-46::obj-8" : 				{
					"parameter_longname" : "live.drop[5]"
				}
,
				"obj-25::obj-5::obj-12" : 				{
					"parameter_longname" : "live.button[10]"
				}
,
				"obj-26::obj-1" : 				{
					"parameter_longname" : "live.menu[4]"
				}
,
				"obj-26::obj-12::obj-4" : 				{
					"parameter_longname" : "live.numbox[8]"
				}
,
				"obj-26::obj-182" : 				{
					"parameter_longname" : "spat_input_mute_button[4]"
				}
,
				"obj-26::obj-2" : 				{
					"parameter_longname" : "live.gain~[4]"
				}
,
				"obj-26::obj-23" : 				{
					"parameter_longname" : "live.toggle[14]"
				}
,
				"obj-26::obj-26::obj-56" : 				{
					"parameter_longname" : "live.button[9]"
				}
,
				"obj-26::obj-26::obj-58" : 				{
					"parameter_longname" : "live.toggle[13]"
				}
,
				"obj-26::obj-26::obj-59" : 				{
					"parameter_longname" : "live.numbox[9]"
				}
,
				"obj-26::obj-43::obj-8" : 				{
					"parameter_longname" : "live.dial[4]"
				}
,
				"obj-26::obj-46::obj-36" : 				{
					"parameter_longname" : "select folder[5]"
				}
,
				"obj-26::obj-46::obj-70" : 				{
					"parameter_longname" : "live.toggle[12]"
				}
,
				"obj-26::obj-46::obj-8" : 				{
					"parameter_longname" : "live.drop[4]"
				}
,
				"obj-26::obj-5::obj-12" : 				{
					"parameter_longname" : "live.button[8]"
				}
,
				"obj-7::obj-1" : 				{
					"parameter_longname" : "live.menu[1]"
				}
,
				"obj-7::obj-12::obj-4" : 				{
					"parameter_longname" : "live.numbox[2]"
				}
,
				"obj-7::obj-182" : 				{
					"parameter_longname" : "spat_input_mute_button[1]"
				}
,
				"obj-7::obj-2" : 				{
					"parameter_longname" : "live.gain~[1]"
				}
,
				"obj-7::obj-23" : 				{
					"parameter_longname" : "live.toggle[5]"
				}
,
				"obj-7::obj-26::obj-56" : 				{
					"parameter_longname" : "live.button[3]"
				}
,
				"obj-7::obj-26::obj-58" : 				{
					"parameter_longname" : "live.toggle[4]"
				}
,
				"obj-7::obj-26::obj-59" : 				{
					"parameter_longname" : "live.numbox[3]"
				}
,
				"obj-7::obj-43::obj-8" : 				{
					"parameter_longname" : "live.dial[1]"
				}
,
				"obj-7::obj-46::obj-36" : 				{
					"parameter_longname" : "select folder[2]"
				}
,
				"obj-7::obj-46::obj-70" : 				{
					"parameter_longname" : "live.toggle[3]"
				}
,
				"obj-7::obj-46::obj-8" : 				{
					"parameter_longname" : "live.drop[1]"
				}
,
				"obj-7::obj-5::obj-12" : 				{
					"parameter_longname" : "live.button[2]"
				}
,
				"obj-9::obj-1" : 				{
					"parameter_longname" : "live.menu[2]"
				}
,
				"obj-9::obj-12::obj-4" : 				{
					"parameter_longname" : "live.numbox[4]"
				}
,
				"obj-9::obj-182" : 				{
					"parameter_longname" : "spat_input_mute_button[2]"
				}
,
				"obj-9::obj-2" : 				{
					"parameter_longname" : "live.gain~[2]"
				}
,
				"obj-9::obj-23" : 				{
					"parameter_longname" : "live.toggle[8]"
				}
,
				"obj-9::obj-26::obj-56" : 				{
					"parameter_longname" : "live.button[5]"
				}
,
				"obj-9::obj-26::obj-58" : 				{
					"parameter_longname" : "live.toggle[7]"
				}
,
				"obj-9::obj-26::obj-59" : 				{
					"parameter_longname" : "live.numbox[5]"
				}
,
				"obj-9::obj-43::obj-8" : 				{
					"parameter_longname" : "live.dial[2]"
				}
,
				"obj-9::obj-46::obj-36" : 				{
					"parameter_longname" : "select folder[3]"
				}
,
				"obj-9::obj-46::obj-70" : 				{
					"parameter_longname" : "live.toggle[6]"
				}
,
				"obj-9::obj-46::obj-8" : 				{
					"parameter_longname" : "live.drop[2]"
				}
,
				"obj-9::obj-5::obj-12" : 				{
					"parameter_longname" : "live.button[4]"
				}

			}
,
			"inherited_shortname" : 1
		}
,
		"dependency_cache" : [ 			{
				"name" : "spat5.input~.maxpat",
				"bootpath" : "~/Documents/Max 8/Packages/spat5-x64/patchers",
				"patcherrelativepath" : "../../../../../Max 8/Packages/spat5-x64/patchers",
				"type" : "JSON",
				"implicit" : 1
			}
, 			{
				"name" : "spat5.loop.png",
				"bootpath" : "~/Documents/Max 8/Packages/spat5-x64/media/images",
				"patcherrelativepath" : "../../../../../Max 8/Packages/spat5-x64/media/images",
				"type" : "PNG",
				"implicit" : 1
			}
, 			{
				"name" : "thru.maxpat",
				"bootpath" : "C74:/patchers/m4l/Pluggo for Live resources/patches",
				"type" : "JSON",
				"implicit" : 1
			}
 ],
		"autosave" : 0
	}

}
